<?xml version="1.0" encoding="iso-8859-1"?>
<!-- Generator: Adobe Illustrator 18.0.0, SVG Export Plug-In . SVG Version: 6.00 Build 0)  -->
<!DOCTYPE svg PUBLIC "-//W3C//DTD SVG 1.1//EN" "http://www.w3.org/Graphics/SVG/1.1/DTD/svg11.dtd">
<svg version="1.1" id="_x31_" xmlns="http://www.w3.org/2000/svg" xmlns:xlink="http://www.w3.org/1999/xlink" x="0px" y="0px"
	 viewBox="0 0 512 512" style="enable-background:new 0 0 512 512;" xml:space="preserve">
<g>
	<rect style="fill:#E17B80;" width="512" height="512"/>
	<path style="opacity:0.1;fill:#231815;" d="M512,204.8V512H221.798l-75.981-75.981l-27.75-27.699v-9.165
		c0-9.933,5.222-18.637,13.107-23.501c-0.563-3.43-0.819-6.912-0.819-10.496v-79.77c-15.258-0.051-27.648-12.493-27.648-27.75
		v-22.63c0-15.309,12.442-27.75,27.75-27.75h4.608v-59.341c0,0-2.97-0.102-7.066-1.434l33.485-33.485
		c6.502,7.27,11.366,12.749,11.366,12.749h166.246c0,0,36.71-40.96,42.854-48.282c0.461-0.512,0.973-0.922,1.536-1.126l20.07,20.019
		L512,204.8z"/>
	<g>
		<g>
			<g>
				<path style="fill:#C0E4F4;" d="M381.645,275.61v89.549c0,1.075-0.051,2.15-0.102,3.226c-0.051,0.666-0.102,1.331-0.154,2.048
					c-0.102,1.792-0.307,3.482-0.563,5.222c-5.069,32.051-32.922,56.678-66.355,56.678H197.53
					c-33.434,0-61.286-24.627-66.355-56.678c-0.563-3.43-0.819-6.912-0.819-10.496V275.61c0-17.562,6.758-33.536,17.818-45.517
					c12.288-13.312,29.85-21.658,49.357-21.658H314.47c19.507,0,37.069,8.346,49.357,21.658
					C374.886,242.074,381.645,258.048,381.645,275.61z"/>
				<path style="fill:#AF8289;" d="M351.77,365.146c0,20.605-16.705,37.315-37.315,37.315h-116.92
					c-20.6,0-37.305-16.71-37.305-37.315v-89.552c0-20.607,16.705-37.315,37.305-37.315h116.92c20.61,0,37.315,16.708,37.315,37.315
					V365.146z"/>
				<path style="fill:#C0E4F4;" d="M405.248,119.142c-4.915,28.211-28.314,28.774-28.314,28.774v82.176H135.066v-82.176
					c0,0-2.97-0.102-7.066-1.434c-7.322-2.509-18.074-9.216-21.248-27.341c-4.915-28.211,17.152-49.05,23.296-41.677
					c3.891,4.659,20.122,22.886,31.437,35.533c6.502,7.27,11.366,12.749,11.366,12.749h166.246c0,0,36.71-40.96,42.854-48.282
					c0.461-0.512,0.973-0.922,1.536-1.126c5.171-2.202,15.411,6.195,20.07,20.019C405.76,102.912,406.733,110.694,405.248,119.142z"
					/>
				<g>
					<path style="fill:#F5F4F8;" d="M208.38,312.613c0,7.566-6.13,13.698-13.695,13.698l0,0c-7.566,0-13.7-6.132-13.7-13.698
						v-33.917c0-7.568,6.135-13.698,13.7-13.698l0,0c7.565,0,13.695,6.13,13.695,13.698V312.613z"/>
					<path style="fill:#F5F4F8;" d="M331.01,310.006c0,7.566-6.135,13.696-13.695,13.696l0,0c-7.565,0-13.695-6.13-13.695-13.696
						v-33.917c0-7.568,6.13-13.7,13.695-13.7l0,0c7.56,0,13.695,6.132,13.695,13.7V310.006z"/>
				</g>
				<g>
					<path style="fill:#F5F4F8;" d="M211.245,387.813c0,6.923-5.615,12.533-12.535,12.533l0,0c-6.92,0-12.53-5.61-12.53-12.533
						v-31.03c0-6.923,5.61-12.533,12.53-12.533l0,0c6.92,0,12.535,5.61,12.535,12.533V387.813z"/>
					<path style="fill:#F5F4F8;" d="M325.82,387.813c0,6.923-5.61,12.533-12.53,12.533l0,0c-6.92,0-12.534-5.61-12.534-12.533
						v-31.03c0-6.923,5.614-12.533,12.534-12.533l0,0c6.92,0,12.53,5.61,12.53,12.533V387.813z"/>
				</g>
				<g>
					<path style="fill:#A4CAD7;" d="M409.293,235.008v22.63c0,0.973-0.051,1.894-0.154,2.867c0,0.051,0,0.051,0,0.051
						c-0.102,0.819-0.205,1.638-0.358,2.458c-0.154,0.666-0.307,1.28-0.461,1.843c-0.154,0.666-0.358,1.28-0.614,1.946
						c-0.154,0.563-0.41,1.126-0.666,1.69c-0.307,0.819-0.666,1.587-1.126,2.355c-0.41,0.819-0.87,1.587-1.382,2.304
						c-0.461,0.717-1.024,1.434-1.587,2.15c-0.563,0.666-1.178,1.331-1.792,1.946c-0.563,0.563-1.178,1.126-1.792,1.638
						c-1.178,0.973-2.458,1.894-3.789,2.611c-0.461,0.307-0.973,0.614-1.485,0.819c-0.102,0.102-0.256,0.205-0.41,0.205
						c-0.614,0.358-1.229,0.614-1.894,0.87c-1.434,0.563-2.97,1.075-4.557,1.382c-1.792,0.41-3.635,0.614-5.581,0.614
						c-0.051,0-0.051,0-0.102,0H130.458c-0.051,0-0.051,0-0.102,0c-15.258-0.051-27.648-12.493-27.648-27.75v-22.63
						c0-15.309,12.442-27.75,27.75-27.75h24.627c6.758-10.189,18.381-16.947,31.539-16.947s24.781,6.758,31.539,16.947h75.674
						c6.758-10.189,18.33-16.947,31.539-16.947c13.158,0,24.781,6.758,31.539,16.947h24.627
						C396.851,207.258,409.293,219.699,409.293,235.008z"/>
					<g>
						<path style="fill:#7EA6B6;" d="M186.63,213.796c-7.91,0-14.35,6.435-14.35,14.35c0,7.91,6.44,14.348,14.35,14.348
							c7.915,0,14.35-6.438,14.35-14.348C200.98,220.231,194.545,213.796,186.63,213.796z"/>
						<path style="fill:#7EA6B6;" d="M325.37,213.796c-7.915,0-14.35,6.435-14.35,14.35c0,7.91,6.435,14.348,14.35,14.348
							c7.915,0,14.35-6.438,14.35-14.348C339.72,220.231,333.285,213.796,325.37,213.796z"/>
					</g>
				</g>
				<path style="fill:#A4CAD7;" d="M393.933,399.155v9.165c0,15.309-12.442,27.699-27.75,27.699H145.818
					c-15.309,0-27.75-12.39-27.75-27.699v-9.165c0-9.933,5.222-18.637,13.107-23.501c4.25-2.714,9.267-4.25,14.643-4.25h220.365
					c5.376,0,10.342,1.536,14.541,4.147c0.051,0,0.051,0.051,0.102,0.102c0.051,0,0.154,0.051,0.205,0.102
					c0.051,0,0.051,0.051,0.102,0.051c0.666,0.41,1.28,0.87,1.894,1.382c0.051,0,0.154,0.051,0.205,0.102l0.051,0.051
					c0.461,0.358,0.922,0.768,1.382,1.178c0.154,0.102,0.307,0.256,0.461,0.41c0.461,0.41,0.87,0.819,1.28,1.28l0.051,0.051
					l0.051,0.051c0.563,0.614,1.075,1.229,1.638,1.894c0,0.051,0,0.051,0.051,0.102c0.154,0.154,0.256,0.358,0.41,0.563
					c0.41,0.563,0.819,1.126,1.126,1.741c0.051,0.051,0.102,0.154,0.154,0.205c0.256,0.358,0.461,0.717,0.666,1.126
					c0.461,0.768,0.819,1.587,1.178,2.406c0.256,0.614,0.512,1.229,0.717,1.843v0.051c0.205,0.563,0.358,1.126,0.512,1.69
					c0.205,0.717,0.358,1.434,0.461,2.15c0.205,0.768,0.307,1.587,0.358,2.406C393.882,397.363,393.933,398.285,393.933,399.155z"/>
				<g>
					<g>
						<path style="fill:#564236;" d="M172.2,161.226h-15.92l5.145,6.977c-0.66,1.483-1.045,3.105-1.045,4.822
							c0,6.526,5.29,11.82,11.82,11.82c6.52,0,11.81-5.295,11.81-11.82C184.01,166.514,178.72,161.226,172.2,161.226z"/>
					</g>
					<g>
						<path style="fill:#564236;" d="M339.8,161.226h15.92l-5.155,6.977c0.675,1.483,1.05,3.105,1.05,4.822
							c0,6.526-5.28,11.82-11.815,11.82c-6.515,0-11.805-5.295-11.805-11.82C327.995,166.514,333.285,161.226,339.8,161.226z"/>
					</g>
				</g>
			</g>
		</g>
		<path style="opacity:0.08;fill:#564236;" d="M409.293,235.008v22.63c0,13.363-9.472,24.525-22.067,27.136
			c-1.792,0.358-3.686,0.563-5.581,0.563v79.821c0,1.075-0.051,2.15-0.102,3.226c-0.051,0.666-0.102,1.331-0.154,2.048
			c-0.154,1.69-0.358,3.43-0.666,5.12c0.051,0,0.051,0.051,0.102,0.102c0.051,0,0.154,0.051,0.205,0.102
			c0.768,0.461,1.485,0.973,2.202,1.536c1.126,0.922,2.253,1.894,3.226,2.97c0.614,0.666,1.178,1.331,1.741,2.048
			c0.154,0.154,0.256,0.358,0.41,0.563c0.41,0.563,0.819,1.126,1.126,1.741c0.358,0.461,0.614,0.87,0.819,1.331
			c0.461,0.768,0.819,1.587,1.178,2.406c0.307,0.666,0.512,1.28,0.717,1.894c0.205,0.563,0.358,1.126,0.512,1.69
			c0.41,1.485,0.717,2.97,0.819,4.557c0.102,0.87,0.154,1.792,0.154,2.662v9.165c0,15.309-12.442,27.699-27.75,27.699H259.482
			V125.747h79.616c0,0,36.71-40.96,42.854-48.282c0.461-0.512,0.973-0.922,1.536-1.126c5.171-2.202,15.411,6.195,20.07,20.019
			c2.202,6.554,3.174,14.336,1.69,22.784c-4.915,28.211-28.314,28.774-28.314,28.774v59.341h4.608
			C396.851,207.258,409.293,219.699,409.293,235.008z"/>
	</g>
</g>
</svg>
